<svg width="138" height="123" viewBox="0 0 138 123" fill="none" xmlns="http://www.w3.org/2000/svg">
<path d="M46 69.9346H6.624C2.96567 69.9346 0 72.7667 0 76.2603V116.675C0 120.168 2.96567 123 6.624 123H46C49.6583 123 52.624 120.168 52.624 116.675V76.2603C52.624 72.7667 49.6583 69.9346 46 69.9346Z" fill="#B7F700"/>
<path d="M47.472 0H5.152C2.30663 0 0 2.20276 0 4.92C0 7.63724 2.30663 9.84 5.152 9.84H47.472C50.3174 9.84 52.624 7.63724 52.624 4.92C52.624 2.20276 50.3174 0 47.472 0Z" fill="#B7F700"/>
<path d="M46.0001 16.8682H33.8561C31.0107 16.8682 28.7041 19.0709 28.7041 21.7882C28.7041 24.5054 31.0107 26.7082 33.8561 26.7082H46.0001C48.8455 26.7082 51.1521 24.5054 51.1521 21.7882C51.1521 19.0709 48.8455 16.8682 46.0001 16.8682Z" fill="#B7F700"/>
<path d="M47.4721 34.0889H15.8241C12.9787 34.0889 10.6721 36.2916 10.6721 39.0089C10.6721 41.7261 12.9787 43.9289 15.8241 43.9289H47.4721C50.3175 43.9289 52.6241 41.7261 52.6241 39.0089C52.6241 36.2916 50.3175 34.0889 47.4721 34.0889Z" fill="#B7F700"/>
<path d="M47.472 51.3086H5.152C2.30663 51.3086 0 53.5114 0 56.2286C0 58.9458 2.30663 61.1486 5.152 61.1486H47.472C50.3174 61.1486 52.624 58.9458 52.624 56.2286C52.624 53.5114 50.3174 51.3086 47.472 51.3086Z" fill="#B7F700"/>
<path d="M127.696 0H68.448C62.7573 0 58.144 4.40552 58.144 9.84V69.2314C58.144 74.6659 62.7573 79.0714 68.448 79.0714H127.696C133.387 79.0714 138 74.6659 138 69.2314V9.84C138 4.40552 133.387 0 127.696 0Z" fill="#0136FE"/>
<path d="M87.584 83.2891H62.56C60.1212 83.2891 58.144 85.1771 58.144 87.5062V115.269C58.144 117.598 60.1212 119.486 62.56 119.486H87.584C90.0229 119.486 92 117.598 92 115.269V87.5062C92 85.1771 90.0229 83.2891 87.584 83.2891Z" fill="#F5290E"/>
</svg>
